<svg width="51" height="51" viewBox="0 0 51 51" fill="none" xmlns="http://www.w3.org/2000/svg">
<path opacity="0.4" d="M25.5 40.375C33.7152 40.375 40.375 33.7152 40.375 25.5C40.375 17.2848 33.7152 10.625 25.5 10.625C17.2848 10.625 10.625 17.2848 10.625 25.5C10.625 33.7152 17.2848 40.375 25.5 40.375Z" fill="#FFD84F"/>
<path d="M25.5 48.79C24.3313 48.79 23.375 47.9188 23.375 46.75V46.58C23.375 45.4113 24.3313 44.455 25.5 44.455C26.6688 44.455 27.625 45.4113 27.625 46.58C27.625 47.7488 26.6688 48.79 25.5 48.79ZM40.6725 42.7975C40.12 42.7975 39.5888 42.585 39.1638 42.1813L38.8875 41.905C38.0588 41.0763 38.0588 39.7375 38.8875 38.9088C39.7163 38.08 41.055 38.08 41.8838 38.9088L42.16 39.185C42.9888 40.0138 42.9888 41.3525 42.16 42.1813C41.7563 42.585 41.225 42.7975 40.6725 42.7975ZM10.3275 42.7975C9.775 42.7975 9.24375 42.585 8.81875 42.1813C7.99 41.3525 7.99 40.0138 8.81875 39.185L9.095 38.9088C9.92375 38.08 11.2625 38.08 12.0913 38.9088C12.92 39.7375 12.92 41.0763 12.0913 41.905L11.815 42.1813C11.4113 42.585 10.8588 42.7975 10.3275 42.7975ZM46.75 27.625H46.58C45.4113 27.625 44.455 26.6688 44.455 25.5C44.455 24.3313 45.4113 23.375 46.58 23.375C47.7488 23.375 48.79 24.3313 48.79 25.5C48.79 26.6688 47.9188 27.625 46.75 27.625ZM4.42 27.625H4.25C3.08125 27.625 2.125 26.6688 2.125 25.5C2.125 24.3313 3.08125 23.375 4.25 23.375C5.41875 23.375 6.46 24.3313 6.46 25.5C6.46 26.6688 5.58875 27.625 4.42 27.625ZM40.3963 12.7288C39.8438 12.7288 39.3125 12.5163 38.8875 12.1125C38.0588 11.2838 38.0588 9.945 38.8875 9.11625L39.1638 8.84C39.9925 8.01125 41.3313 8.01125 42.16 8.84C42.9888 9.66875 42.9888 11.0075 42.16 11.8363L41.8838 12.1125C41.48 12.5163 40.9488 12.7288 40.3963 12.7288ZM10.6038 12.7288C10.0513 12.7288 9.52 12.5163 9.095 12.1125L8.81875 11.815C7.99 10.9863 7.99 9.6475 8.81875 8.81875C9.6475 7.99 10.9863 7.99 11.815 8.81875L12.0913 9.095C12.92 9.92375 12.92 11.2625 12.0913 12.0913C11.6875 12.5163 11.135 12.7288 10.6038 12.7288ZM25.5 6.46C24.3313 6.46 23.375 5.58875 23.375 4.42V4.25C23.375 3.08125 24.3313 2.125 25.5 2.125C26.6688 2.125 27.625 3.08125 27.625 4.25C27.625 5.41875 26.6688 6.46 25.5 6.46Z" fill="#FFD84F"/>
</svg>
