<svg width="97" height="97" viewBox="0 0 97 97" fill="none" xmlns="http://www.w3.org/2000/svg">
<g filter="url(#filter0_d_9_357)">
<path opacity="0.4" d="M48.5 63.375C56.7152 63.375 63.375 56.7152 63.375 48.5C63.375 40.2848 56.7152 33.625 48.5 33.625C40.2848 33.625 33.625 40.2848 33.625 48.5C33.625 56.7152 40.2848 63.375 48.5 63.375Z" fill="#FFD84F"/>
<path d="M48.5 71.79C47.3313 71.79 46.375 70.9188 46.375 69.75V69.58C46.375 68.4113 47.3313 67.455 48.5 67.455C49.6688 67.455 50.625 68.4113 50.625 69.58C50.625 70.7488 49.6688 71.79 48.5 71.79ZM63.6725 65.7975C63.12 65.7975 62.5888 65.585 62.1638 65.1813L61.8875 64.905C61.0588 64.0763 61.0588 62.7375 61.8875 61.9088C62.7163 61.08 64.055 61.08 64.8838 61.9088L65.16 62.185C65.9888 63.0138 65.9888 64.3525 65.16 65.1813C64.7563 65.585 64.225 65.7975 63.6725 65.7975ZM33.3275 65.7975C32.775 65.7975 32.2438 65.585 31.8188 65.1813C30.99 64.3525 30.99 63.0138 31.8188 62.185L32.095 61.9088C32.9238 61.08 34.2625 61.08 35.0913 61.9088C35.92 62.7375 35.92 64.0763 35.0913 64.905L34.815 65.1813C34.4113 65.585 33.8588 65.7975 33.3275 65.7975ZM69.75 50.625H69.58C68.4113 50.625 67.455 49.6688 67.455 48.5C67.455 47.3313 68.4113 46.375 69.58 46.375C70.7488 46.375 71.79 47.3313 71.79 48.5C71.79 49.6688 70.9188 50.625 69.75 50.625ZM27.42 50.625H27.25C26.0813 50.625 25.125 49.6688 25.125 48.5C25.125 47.3313 26.0813 46.375 27.25 46.375C28.4188 46.375 29.46 47.3313 29.46 48.5C29.46 49.6688 28.5888 50.625 27.42 50.625ZM63.3963 35.7288C62.8438 35.7288 62.3125 35.5163 61.8875 35.1125C61.0588 34.2838 61.0588 32.945 61.8875 32.1163L62.1638 31.84C62.9925 31.0113 64.3313 31.0113 65.16 31.84C65.9888 32.6688 65.9888 34.0075 65.16 34.8363L64.8838 35.1125C64.48 35.5163 63.9488 35.7288 63.3963 35.7288ZM33.6038 35.7288C33.0513 35.7288 32.52 35.5163 32.095 35.1125L31.8188 34.815C30.99 33.9863 30.99 32.6475 31.8188 31.8188C32.6475 30.99 33.9863 30.99 34.815 31.8188L35.0913 32.095C35.92 32.9238 35.92 34.2625 35.0913 35.0913C34.6875 35.5163 34.135 35.7288 33.6038 35.7288ZM48.5 29.46C47.3313 29.46 46.375 28.5888 46.375 27.42V27.25C46.375 26.0813 47.3313 25.125 48.5 25.125C49.6688 25.125 50.625 26.0813 50.625 27.25C50.625 28.4188 49.6688 29.46 48.5 29.46Z" fill="#FFD84F"/>
</g>
<defs>
<filter id="filter0_d_9_357" x="-2" y="-2" width="101" height="101" filterUnits="userSpaceOnUse" color-interpolation-filters="sRGB">
<feFlood flood-opacity="0" result="BackgroundImageFix"/>
<feColorMatrix in="SourceAlpha" type="matrix" values="0 0 0 0 0 0 0 0 0 0 0 0 0 0 0 0 0 0 127 0" result="hardAlpha"/>
<feOffset/>
<feGaussianBlur stdDeviation="12.5"/>
<feComposite in2="hardAlpha" operator="out"/>
<feColorMatrix type="matrix" values="0 0 0 0 1 0 0 0 0 0.847833 0 0 0 0 0.308333 0 0 0 0.24 0"/>
<feBlend mode="normal" in2="BackgroundImageFix" result="effect1_dropShadow_9_357"/>
<feBlend mode="normal" in="SourceGraphic" in2="effect1_dropShadow_9_357" result="shape"/>
</filter>
</defs>
</svg>
